<svg xmlns="http://www.w3.org/2000/svg" xmlns:xlink="http://www.w3.org/1999/xlink" width="500" zoomAndPan="magnify" viewBox="0 0 375 374.999991" height="500" preserveAspectRatio="xMidYMid meet" version="1.0"><defs><g/><clipPath id="1e8594a321"><path d="M 22.5 0 L 352.5 0 C 358.46875 0 364.191406 2.371094 368.410156 6.589844 C 372.628906 10.808594 375 16.53125 375 22.5 L 375 352.5 C 375 358.46875 372.628906 364.191406 368.410156 368.410156 C 364.191406 372.628906 358.46875 375 352.5 375 L 22.5 375 C 10.074219 375 0 364.925781 0 352.5 L 0 22.5 C 0 10.074219 10.074219 0 22.5 0 Z M 22.5 0 " clip-rule="nonzero"/></clipPath></defs><path stroke-linecap="butt" transform="matrix(0.75, 0, 0, 0.75, 37.475858, 74.669599)" fill="none" stroke-linejoin="miter" d="M 0.000939601 4.997827 L 299.683251 4.997827 " stroke="#ffffff" stroke-width="10" stroke-opacity="1" stroke-miterlimit="4"/><path stroke-linecap="butt" transform="matrix(0.75, 0, 0, 0.75, 37.475858, 187.499988)" fill="none" stroke-linejoin="miter" d="M 0.000939601 5.000017 L 400.000966 5.000017 " stroke="#ffffff" stroke-width="10" stroke-opacity="1" stroke-miterlimit="4"/><g clip-path="url(#1e8594a321)"><rect x="-37.5" width="450" fill="#ffaa00" y="-37.499999" height="449.999989" fill-opacity="1"/></g><path stroke-linecap="butt" transform="matrix(0.75, 0, 0, 0.75, 37.500002, 71.249995)" fill="none" stroke-linejoin="miter" d="M -0.00000271667 5.000007 L 299.651059 5.000007 " stroke="#ffffff" stroke-width="10" stroke-opacity="1" stroke-miterlimit="4"/><path stroke-linecap="butt" transform="matrix(0.75, 0, 0, 0.75, 37.500002, 183.749988)" fill="none" stroke-linejoin="miter" d="M -0.00000271667 5.000016 L 400.000024 5.000016 " stroke="#ffffff" stroke-width="10" stroke-opacity="1" stroke-miterlimit="4"/><path stroke-linecap="butt" transform="matrix(0.75, 0, 0, 0.75, 37.500002, 296.249981)" fill="none" stroke-linejoin="miter" d="M -0.00000271667 5.000026 L 399.968774 5.000026 " stroke="#ffffff" stroke-width="10" stroke-opacity="1" stroke-miterlimit="4"/><path stroke-linecap="butt" transform="matrix(0.75, 0, 0, 0.75, 37.524146, 239.999984)" fill="none" stroke-linejoin="miter" d="M -0.000945035 5.000021 L 399.967831 5.000021 " stroke="#ffffff" stroke-width="10" stroke-opacity="1" stroke-miterlimit="4"/><path stroke-linecap="butt" transform="matrix(0.75, 0, 0, 0.75, 37.475858, 127.499992)" fill="none" stroke-linejoin="miter" d="M 0.000939601 5.000011 L 400.000966 5.000011 " stroke="#ffffff" stroke-width="10" stroke-opacity="1" stroke-miterlimit="4"/><g fill="#000000" fill-opacity="1"><g transform="translate(37.524146, 74.499993)"><g><path d="M 0.238281 0 L 5.417969 -27.972656 L 13.960938 -27.972656 L 19.207031 0 L 12.457031 0 L 11.859375 -4.972656 L 7.347656 -4.972656 L 6.679688 0 Z M 8.015625 -9.945312 L 11.226562 -9.945312 L 9.722656 -23.632812 Z M 8.015625 -9.945312 "/></g></g></g><g fill="#000000" fill-opacity="1"><g transform="translate(56.968046, 74.499993)"><g><path d="M 1.023438 -22.574219 L 1.023438 -27.972656 L 16.867188 -27.972656 L 16.867188 -22.742188 L 7.742188 -5.398438 L 16.867188 -5.398438 L 16.867188 0 L 0.632812 0 L 0.632812 -5.210938 L 9.707031 -22.574219 Z M 1.023438 -22.574219 "/></g></g></g><g fill="#000000" fill-opacity="1"><g transform="translate(74.464138, 74.499993)"><g/></g></g><g fill="#000000" fill-opacity="1"><g transform="translate(83.143841, 74.499993)"><g><path d="M 7.878906 -23.203125 L 7.878906 -4.765625 L 8.886719 -4.765625 C 10.683594 -4.765625 11.585938 -5.558594 11.585938 -7.140625 L 11.585938 -20.828125 C 11.585938 -22.414062 10.683594 -23.203125 8.886719 -23.203125 Z M 1.433594 0 L 1.433594 -27.972656 L 11.019531 -27.972656 C 13.617188 -27.972656 15.476562 -27.261719 16.59375 -25.835938 C 17.546875 -24.617188 18.027344 -22.828125 18.027344 -20.472656 L 18.027344 -7.175781 C 18.027344 -4.839844 17.292969 -3.011719 15.824219 -1.691406 C 14.558594 -0.5625 12.957031 0 11.019531 0 Z M 1.433594 0 "/></g></g></g><g fill="#000000" fill-opacity="1"><g transform="translate(102.58774, 74.499993)"><g><path d="M 1.367188 -5.914062 L 1.367188 -16.457031 C 1.367188 -18.105469 1.84375 -19.496094 2.800781 -20.625 C 4.066406 -22.09375 6.050781 -22.828125 8.75 -22.828125 C 11.347656 -22.828125 13.328125 -22.09375 14.695312 -20.625 C 15.652344 -19.519531 16.128906 -18.128906 16.128906 -16.457031 L 16.128906 -5.914062 C 16.128906 -4.261719 15.652344 -2.875 14.695312 -1.761719 C 13.441406 -0.289062 11.460938 0.445312 8.75 0.445312 C 6.164062 0.445312 4.179688 -0.289062 2.800781 -1.761719 C 1.84375 -2.855469 1.367188 -4.238281 1.367188 -5.914062 Z M 7.382812 -16.867188 L 7.382812 -5.503906 C 7.382812 -4.921875 7.433594 -4.523438 7.535156 -4.304688 C 7.71875 -3.882812 8.121094 -3.671875 8.75 -3.671875 C 9.308594 -3.671875 9.707031 -3.875 9.945312 -4.273438 C 10.058594 -4.578125 10.117188 -4.988281 10.117188 -5.503906 L 10.117188 -16.867188 C 10.117188 -17.457031 10.070312 -17.855469 9.980469 -18.0625 C 9.796875 -18.484375 9.386719 -18.695312 8.75 -18.695312 C 8.144531 -18.695312 7.773438 -18.527344 7.636719 -18.199219 C 7.46875 -17.878906 7.382812 -17.433594 7.382812 -16.867188 Z M 7.382812 -16.867188 "/></g></g></g><g fill="#000000" fill-opacity="1"><g transform="translate(120.083833, 74.499993)"><g><path d="M 1.367188 -5.914062 L 1.367188 -16.457031 C 1.367188 -18.105469 1.84375 -19.496094 2.800781 -20.625 C 4.066406 -22.09375 6.050781 -22.828125 8.75 -22.828125 C 11.347656 -22.828125 13.328125 -22.09375 14.695312 -20.625 C 15.652344 -19.519531 16.128906 -18.128906 16.128906 -16.457031 L 16.128906 -14.078125 L 10.117188 -14.078125 L 10.117188 -16.867188 C 10.117188 -17.457031 10.070312 -17.855469 9.980469 -18.0625 C 9.796875 -18.484375 9.386719 -18.695312 8.75 -18.695312 C 8.144531 -18.695312 7.773438 -18.527344 7.636719 -18.199219 C 7.46875 -17.878906 7.382812 -17.433594 7.382812 -16.867188 L 7.382812 -5.503906 C 7.382812 -4.921875 7.433594 -4.523438 7.535156 -4.304688 C 7.71875 -3.882812 8.121094 -3.671875 8.75 -3.671875 C 9.308594 -3.671875 9.707031 -3.875 9.945312 -4.273438 C 10.058594 -4.578125 10.117188 -4.988281 10.117188 -5.503906 L 10.117188 -9.519531 L 16.128906 -9.519531 L 16.128906 -5.914062 C 16.128906 -4.261719 15.652344 -2.875 14.695312 -1.761719 C 13.441406 -0.289062 11.460938 0.445312 8.75 0.445312 C 6.164062 0.445312 4.179688 -0.289062 2.800781 -1.761719 C 1.84375 -2.855469 1.367188 -4.238281 1.367188 -5.914062 Z M 1.367188 -5.914062 "/></g></g></g><g fill="#000000" fill-opacity="1"><g transform="translate(137.579925, 74.499993)"><g><path d="M 16.128906 -22.367188 L 16.128906 0 L 10.320312 0 L 10.320312 -2.496094 C 9.71875 -1.515625 9.066406 -0.769531 8.371094 -0.257812 C 7.644531 0.210938 6.742188 0.445312 5.671875 0.445312 C 4.273438 0.445312 3.210938 -0.00390625 2.496094 -0.90625 C 1.742188 -1.816406 1.367188 -2.960938 1.367188 -4.339844 L 1.367188 -22.367188 L 7.382812 -22.367188 L 7.382812 -7.074219 C 7.382812 -6.34375 7.433594 -5.890625 7.535156 -5.707031 C 7.742188 -5.195312 8.144531 -4.9375 8.75 -4.9375 C 9.308594 -4.9375 9.707031 -5.230469 9.945312 -5.808594 C 10.058594 -6.207031 10.117188 -6.628906 10.117188 -7.074219 L 10.117188 -22.367188 Z M 16.128906 -22.367188 "/></g></g></g><g fill="#000000" fill-opacity="1"><g transform="translate(155.076018, 74.499993)"><g><path d="M 1.640625 0 L 1.640625 -22.367188 L 7.449219 -22.367188 L 7.449219 -19.597656 C 8.054688 -20.601562 8.6875 -21.394531 9.347656 -21.972656 C 10.085938 -22.542969 11.042969 -22.828125 12.21875 -22.828125 C 13.265625 -22.828125 14.160156 -22.582031 14.898438 -22.09375 C 15.652344 -21.570312 16.140625 -20.738281 16.371094 -19.597656 C 16.972656 -20.671875 17.570312 -21.460938 18.164062 -21.972656 C 18.859375 -22.542969 19.859375 -22.828125 21.171875 -22.828125 C 22.59375 -22.828125 23.6875 -22.382812 24.453125 -21.496094 C 25.203125 -20.605469 25.578125 -19.449219 25.578125 -18.027344 L 25.578125 0 L 19.566406 0 L 19.566406 -15.019531 C 19.566406 -15.761719 19.503906 -16.261719 19.378906 -16.523438 C 19.171875 -17.128906 18.746094 -17.429688 18.09375 -17.429688 C 17.457031 -17.429688 17.023438 -17.09375 16.796875 -16.421875 C 16.730469 -16.203125 16.683594 -16.015625 16.660156 -15.855469 C 16.636719 -15.675781 16.625 -15.394531 16.625 -15.019531 L 16.625 0 L 10.59375 0 L 10.59375 -15.019531 C 10.59375 -15.761719 10.539062 -16.261719 10.421875 -16.523438 C 10.21875 -17.128906 9.785156 -17.429688 9.125 -17.429688 C 8.5 -17.429688 8.070312 -17.09375 7.84375 -16.421875 C 7.761719 -16.203125 7.710938 -16.015625 7.6875 -15.855469 C 7.667969 -15.675781 7.65625 -15.394531 7.65625 -15.019531 L 7.65625 0 Z M 1.640625 0 "/></g></g></g><g fill="#000000" fill-opacity="1"><g transform="translate(182.294061, 74.499993)"><g><path d="M 1.367188 -5.914062 L 1.367188 -16.457031 C 1.367188 -18.105469 1.84375 -19.496094 2.800781 -20.625 C 4.066406 -22.09375 6.050781 -22.828125 8.75 -22.828125 C 11.347656 -22.828125 13.328125 -22.09375 14.695312 -20.625 C 15.652344 -19.519531 16.128906 -18.128906 16.128906 -16.457031 L 16.128906 -10.285156 L 7.382812 -10.285156 L 7.382812 -5.503906 C 7.382812 -4.921875 7.433594 -4.523438 7.535156 -4.304688 C 7.71875 -3.882812 8.121094 -3.671875 8.75 -3.671875 C 9.308594 -3.671875 9.707031 -3.875 9.945312 -4.273438 C 10.058594 -4.578125 10.117188 -4.988281 10.117188 -5.503906 L 10.117188 -8.304688 L 16.128906 -8.304688 L 16.128906 -5.914062 C 16.128906 -4.261719 15.652344 -2.875 14.695312 -1.761719 C 13.441406 -0.289062 11.460938 0.445312 8.75 0.445312 C 6.164062 0.445312 4.179688 -0.289062 2.800781 -1.761719 C 1.84375 -2.855469 1.367188 -4.238281 1.367188 -5.914062 Z M 7.382812 -16.867188 L 7.382812 -14.421875 L 10.117188 -14.421875 L 10.117188 -16.867188 C 10.117188 -17.457031 10.070312 -17.855469 9.980469 -18.0625 C 9.796875 -18.484375 9.386719 -18.695312 8.75 -18.695312 C 8.144531 -18.695312 7.773438 -18.527344 7.636719 -18.199219 C 7.46875 -17.878906 7.382812 -17.433594 7.382812 -16.867188 Z M 7.382812 -16.867188 "/></g></g></g><g fill="#000000" fill-opacity="1"><g transform="translate(199.790153, 74.499993)"><g><path d="M 1.367188 0 L 1.367188 -22.367188 L 7.175781 -22.367188 L 7.175781 -19.890625 C 7.710938 -20.742188 8.34375 -21.460938 9.074219 -22.042969 C 9.882812 -22.566406 10.800781 -22.828125 11.824219 -22.828125 C 13.226562 -22.828125 14.300781 -22.382812 15.054688 -21.496094 C 15.773438 -20.605469 16.128906 -19.449219 16.128906 -18.027344 L 16.128906 0 L 10.117188 0 L 10.117188 -15.292969 C 10.117188 -16.023438 10.070312 -16.476562 9.980469 -16.660156 C 9.761719 -17.171875 9.351562 -17.429688 8.75 -17.429688 C 8.191406 -17.429688 7.796875 -17.136719 7.570312 -16.558594 C 7.445312 -16.160156 7.382812 -15.738281 7.382812 -15.292969 L 7.382812 0 Z M 1.367188 0 "/></g></g></g><g fill="#000000" fill-opacity="1"><g transform="translate(217.286246, 74.499993)"><g><path d="M 1.8125 -3.570312 L 1.8125 -17.789062 L 0.308594 -17.789062 L 0.308594 -22.128906 L 1.8125 -22.128906 L 1.8125 -26.980469 L 7.84375 -26.980469 L 7.84375 -22.128906 L 9.347656 -22.128906 L 9.347656 -17.789062 L 7.84375 -17.789062 L 7.84375 -5.808594 L 7.945312 -4.546875 C 8.015625 -4.25 8.246094 -4.101562 8.644531 -4.101562 L 9.414062 -4.101562 L 9.414062 0.445312 L 6.511719 0.445312 C 4.996094 0.445312 3.882812 0.210938 3.179688 -0.257812 C 2.265625 -0.859375 1.8125 -1.964844 1.8125 -3.570312 Z M 1.8125 -3.570312 "/></g></g></g><g fill="#000000" fill-opacity="1"><g transform="translate(227.008196, 74.499993)"><g><path d="M 0.835938 -5.570312 L 0.835938 -7.039062 L 6.238281 -7.039062 L 6.238281 -5.671875 C 6.238281 -4.921875 6.386719 -4.386719 6.679688 -4.066406 C 6.898438 -3.804688 7.261719 -3.671875 7.773438 -3.671875 C 8.664062 -3.671875 9.109375 -4.226562 9.109375 -5.332031 C 9.109375 -6.164062 8.488281 -7.089844 7.246094 -8.117188 L 5.074219 -9.738281 C 3.582031 -10.855469 2.511719 -11.972656 1.863281 -13.089844 C 1.328125 -14.160156 1.058594 -15.257812 1.058594 -16.386719 C 1.058594 -18.414062 1.664062 -19.996094 2.871094 -21.136719 C 4.066406 -22.265625 5.703125 -22.828125 7.773438 -22.828125 C 9.960938 -22.828125 11.628906 -22.363281 12.78125 -21.425781 C 13.898438 -20.472656 14.457031 -18.972656 14.457031 -16.933594 L 14.457031 -15.753906 L 9.074219 -15.753906 L 9.074219 -16.933594 C 9.074219 -17.570312 8.964844 -18.027344 8.75 -18.300781 C 8.519531 -18.5625 8.195312 -18.695312 7.773438 -18.695312 C 6.886719 -18.695312 6.441406 -18.191406 6.441406 -17.191406 C 6.441406 -16.527344 6.898438 -15.78125 7.808594 -14.953125 L 10.578125 -12.78125 C 11.898438 -11.800781 12.84375 -10.925781 13.414062 -10.148438 C 14.269531 -9.011719 14.695312 -7.671875 14.695312 -6.132812 C 14.695312 -3.9375 14.089844 -2.289062 12.882812 -1.195312 C 11.640625 -0.101562 9.9375 0.445312 7.773438 0.445312 C 5.234375 0.445312 3.410156 -0.0898438 2.308594 -1.160156 C 1.328125 -2.117188 0.835938 -3.589844 0.835938 -5.570312 Z M 0.835938 -5.570312 "/></g></g></g></svg>