<?xml version="1.0" encoding="UTF-8"?>
<!DOCTYPE svg PUBLIC "-//W3C//DTD SVG 1.1//EN" "http://www.w3.org/Graphics/SVG/1.1/DTD/svg11.dtd">
<svg xmlns="http://www.w3.org/2000/svg" version="1.1" width="460px" height="460px" style="shape-rendering:geometricPrecision; text-rendering:geometricPrecision; image-rendering:optimizeQuality; fill-rule:evenodd; clip-rule:evenodd" xmlns:xlink="http://www.w3.org/1999/xlink">
<g><path style="opacity:1" fill="#efefef" d="M -0.5,-0.5 C 152.833,-0.5 306.167,-0.5 459.5,-0.5C 459.5,152.833 459.5,306.167 459.5,459.5C 306.167,459.5 152.833,459.5 -0.5,459.5C -0.5,306.167 -0.5,152.833 -0.5,-0.5 Z"/></g>
<g><path style="opacity:1" fill="#65dbae" d="M 269.5,114.5 C 294.661,115.498 319.995,115.831 345.5,115.5C 345.169,141.005 345.502,166.339 346.5,191.5C 371.833,191.5 397.167,191.5 422.5,191.5C 422.5,268.5 422.5,345.5 422.5,422.5C 371.167,422.5 319.833,422.5 268.5,422.5C 268.5,371.5 268.5,320.5 268.5,269.5C 243.167,269.5 217.833,269.5 192.5,269.5C 192.5,320.5 192.5,371.5 192.5,422.5C 141.167,422.5 89.8333,422.5 38.5,422.5C 38.5,345.5 38.5,268.5 38.5,191.5C 63.8333,191.5 89.1667,191.5 114.5,191.5C 115.498,166.339 115.831,141.005 115.5,115.5C 141.005,115.831 166.339,115.498 191.5,114.5C 191.5,88.8333 191.5,63.1667 191.5,37.5C 217.5,37.5 243.5,37.5 269.5,37.5C 269.5,63.1667 269.5,88.8333 269.5,114.5 Z"/></g>
<g><path style="opacity:1" fill="#84e0bd" d="M 191.5,114.5 C 166.339,115.498 141.005,115.831 115.5,115.5C 115.831,141.005 115.498,166.339 114.5,191.5C 114.5,165.833 114.5,140.167 114.5,114.5C 140.167,114.5 165.833,114.5 191.5,114.5 Z"/></g>
<g><path style="opacity:1" fill="#84e0bd" d="M 269.5,114.5 C 295.167,114.5 320.833,114.5 346.5,114.5C 346.5,140.167 346.5,165.833 346.5,191.5C 345.502,166.339 345.169,141.005 345.5,115.5C 319.995,115.831 294.661,115.498 269.5,114.5 Z"/></g>
<g><path style="opacity:1" fill="#9ee4c9" d="M 38.5,191.5 C 38.5,268.5 38.5,345.5 38.5,422.5C 89.8333,422.5 141.167,422.5 192.5,422.5C 141.003,423.499 89.336,423.832 37.5,423.5C 37.1674,345.998 37.5007,268.665 38.5,191.5 Z"/></g>
<g><path style="opacity:1" fill="#9ee4c9" d="M 422.5,191.5 C 423.499,268.665 423.833,345.998 423.5,423.5C 371.664,423.832 319.997,423.499 268.5,422.5C 319.833,422.5 371.167,422.5 422.5,422.5C 422.5,345.5 422.5,268.5 422.5,191.5 Z"/></g>
</svg>
